<svg xmlns="http://www.w3.org/2000/svg" xmlns:xlink="http://www.w3.org/1999/xlink" width="750" zoomAndPan="magnify" viewBox="0 0 562.5 595.499986" height="794" preserveAspectRatio="xMidYMid meet" version="1.0"><defs><clipPath id="id1"><path d="M 98 135.96875 L 464 135.96875 L 464 459 L 98 459 Z M 98 135.96875 " clip-rule="nonzero"/></clipPath></defs><path fill="#6bd1ff" d="M 336.203125 388.96875 C 344.121094 392.195312 351.246094 401.75 360.320312 401.75 C 369.394531 401.75 376.519531 392.195312 384.4375 388.96875 C 388.480469 387.597656 392.625 386.664062 396.863281 386.167969 L 396.863281 452.523438 L 360.320312 422.082031 L 323.777344 452.523438 L 323.777344 386.167969 C 328.019531 386.65625 332.160156 387.589844 336.203125 388.96875 Z M 336.203125 388.96875 " fill-opacity="1" fill-rule="nonzero"/><path fill="#6bd1ff" d="M 336.203125 272.574219 C 344.121094 269.347656 351.246094 259.789062 360.320312 259.789062 C 369.394531 259.789062 376.519531 269.347656 384.4375 272.574219 C 392.601562 275.980469 404.355469 274.398438 410.503906 280.609375 C 416.65625 286.816406 415.132812 298.507812 418.546875 306.664062 C 421.773438 314.578125 431.335938 321.699219 431.335938 330.769531 C 431.335938 339.839844 421.773438 346.964844 418.546875 354.878906 C 418.496094 354.949219 418.476562 355.03125 418.484375 355.121094 C 415.132812 363.277344 416.65625 374.84375 410.503906 380.933594 C 408.570312 382.511719 406.4375 383.75 404.105469 384.644531 C 401.773438 385.539062 399.359375 386.046875 396.863281 386.167969 C 392.625 386.664062 388.480469 387.597656 384.4375 388.96875 C 376.519531 392.195312 369.394531 401.75 360.320312 401.75 C 351.246094 401.75 344.121094 392.195312 336.203125 388.96875 C 332.160156 387.589844 328.019531 386.65625 323.777344 386.167969 C 321.28125 386.046875 318.867188 385.539062 316.535156 384.644531 C 314.203125 383.75 312.070312 382.511719 310.136719 380.933594 C 303.984375 374.84375 305.507812 363.277344 302.15625 355.121094 C 302.164062 355.03125 302.144531 354.949219 302.09375 354.878906 C 298.867188 346.964844 289.304688 339.839844 289.304688 330.769531 C 289.304688 321.699219 298.867188 314.578125 302.09375 306.664062 C 305.507812 298.507812 303.921875 286.757812 310.136719 280.609375 C 316.347656 274.460938 328.039062 275.980469 336.203125 272.574219 Z M 396.863281 330.769531 C 396.863281 329.574219 396.804688 328.378906 396.6875 327.191406 C 396.570312 326 396.394531 324.816406 396.160156 323.644531 C 395.925781 322.472656 395.636719 321.3125 395.289062 320.167969 C 394.941406 319.023438 394.539062 317.898438 394.082031 316.792969 C 393.625 315.6875 393.113281 314.605469 392.546875 313.550781 C 391.984375 312.496094 391.371094 311.472656 390.703125 310.476562 C 390.039062 309.484375 389.328125 308.523438 388.566406 307.597656 C 387.808594 306.675781 387.007812 305.789062 386.160156 304.941406 C 385.3125 304.097656 384.429688 303.292969 383.503906 302.535156 C 382.578125 301.777344 381.617188 301.066406 380.621094 300.402344 C 379.628906 299.734375 378.601562 299.121094 377.546875 298.558594 C 376.492188 297.992188 375.410156 297.484375 374.304688 297.023438 C 373.199219 296.566406 372.074219 296.164062 370.929688 295.816406 C 369.78125 295.46875 368.625 295.179688 367.449219 294.945312 C 366.277344 294.714844 365.09375 294.539062 363.902344 294.421875 C 362.710938 294.304688 361.515625 294.246094 360.320312 294.246094 C 359.125 294.246094 357.929688 294.304688 356.738281 294.421875 C 355.546875 294.539062 354.363281 294.714844 353.191406 294.945312 C 352.015625 295.179688 350.859375 295.46875 349.710938 295.816406 C 348.566406 296.164062 347.441406 296.566406 346.335938 297.023438 C 345.230469 297.484375 344.148438 297.992188 343.09375 298.558594 C 342.039062 299.121094 341.011719 299.734375 340.019531 300.402344 C 339.023438 301.066406 338.0625 301.777344 337.136719 302.535156 C 336.210938 303.292969 335.328125 304.097656 334.480469 304.941406 C 333.632812 305.789062 332.832031 306.675781 332.074219 307.597656 C 331.3125 308.523438 330.601562 309.484375 329.9375 310.476562 C 329.269531 311.472656 328.65625 312.496094 328.09375 313.550781 C 327.527344 314.605469 327.015625 315.6875 326.558594 316.792969 C 326.101562 317.898438 325.699219 319.023438 325.351562 320.167969 C 325.003906 321.3125 324.714844 322.472656 324.480469 323.644531 C 324.246094 324.816406 324.070312 326 323.953125 327.191406 C 323.835938 328.378906 323.777344 329.574219 323.777344 330.769531 C 323.777344 331.964844 323.835938 333.160156 323.953125 334.351562 C 324.070312 335.539062 324.246094 336.722656 324.480469 337.894531 C 324.714844 339.070312 325.003906 340.226562 325.351562 341.375 C 325.699219 342.519531 326.101562 343.644531 326.558594 344.746094 C 327.015625 345.851562 327.527344 346.933594 328.09375 347.988281 C 328.65625 349.042969 329.269531 350.066406 329.9375 351.0625 C 330.601562 352.058594 331.3125 353.015625 332.074219 353.941406 C 332.832031 354.867188 333.632812 355.75 334.480469 356.597656 C 335.328125 357.445312 336.210938 358.246094 337.136719 359.003906 C 338.0625 359.765625 339.023438 360.476562 340.019531 361.140625 C 341.011719 361.804688 342.039062 362.417969 343.09375 362.984375 C 344.148438 363.546875 345.230469 364.058594 346.335938 364.515625 C 347.441406 364.972656 348.566406 365.375 349.710938 365.722656 C 350.859375 366.070312 352.015625 366.359375 353.191406 366.59375 C 354.363281 366.828125 355.546875 367.003906 356.738281 367.121094 C 357.929688 367.238281 359.125 367.296875 360.320312 367.296875 C 361.515625 367.296875 362.710938 367.238281 363.902344 367.121094 C 365.09375 367.003906 366.277344 366.828125 367.449219 366.59375 C 368.625 366.359375 369.78125 366.070312 370.929688 365.722656 C 372.074219 365.375 373.199219 364.972656 374.304688 364.515625 C 375.410156 364.058594 376.492188 363.546875 377.546875 362.984375 C 378.601562 362.417969 379.628906 361.804688 380.621094 361.140625 C 381.617188 360.476562 382.578125 359.765625 383.503906 359.003906 C 384.429688 358.246094 385.3125 357.445312 386.160156 356.597656 C 387.007812 355.75 387.808594 354.867188 388.566406 353.941406 C 389.328125 353.015625 390.039062 352.058594 390.703125 351.0625 C 391.371094 350.066406 391.984375 349.042969 392.546875 347.988281 C 393.113281 346.933594 393.625 345.851562 394.082031 344.746094 C 394.539062 343.644531 394.941406 342.519531 395.289062 341.375 C 395.636719 340.226562 395.925781 339.070312 396.160156 337.894531 C 396.394531 336.722656 396.570312 335.539062 396.6875 334.351562 C 396.804688 333.160156 396.863281 331.964844 396.863281 330.769531 Z M 396.863281 330.769531 " fill-opacity="1" fill-rule="nonzero"/><path fill="#6bd1ff" d="M 159.335938 142.054688 L 159.335938 178.582031 C 159.332031 179.378906 159.253906 180.171875 159.09375 180.953125 C 158.9375 181.738281 158.703125 182.496094 158.398438 183.234375 C 158.089844 183.972656 157.714844 184.671875 157.269531 185.335938 C 156.828125 186 156.320312 186.613281 155.757812 187.179688 C 155.191406 187.746094 154.578125 188.25 153.914062 188.691406 C 153.25 189.136719 152.546875 189.511719 151.808594 189.820312 C 151.070312 190.125 150.3125 190.359375 149.527344 190.515625 C 148.746094 190.671875 147.953125 190.753906 147.152344 190.757812 L 104.519531 190.757812 Z M 159.335938 142.054688 " fill-opacity="1" fill-rule="nonzero"/><g clip-path="url(#id1)"><path fill="#6bd1ff" d="M 445.585938 135.96875 L 159.335938 135.96875 C 157.800781 135.960938 156.460938 136.46875 155.316406 137.488281 L 100.5 186.191406 C 99.835938 186.761719 99.324219 187.449219 98.964844 188.246094 C 98.601562 189.042969 98.421875 189.878906 98.429688 190.757812 L 98.429688 342.945312 C 98.433594 343.542969 98.464844 344.140625 98.523438 344.734375 C 98.582031 345.328125 98.671875 345.917969 98.789062 346.503906 C 98.910156 347.089844 99.054688 347.667969 99.230469 348.242188 C 99.402344 348.8125 99.605469 349.375 99.835938 349.925781 C 100.066406 350.476562 100.320312 351.015625 100.605469 351.542969 C 100.886719 352.070312 101.195312 352.582031 101.527344 353.078125 C 101.859375 353.574219 102.214844 354.054688 102.59375 354.515625 C 102.972656 354.976562 103.375 355.421875 103.796875 355.84375 C 104.21875 356.265625 104.664062 356.667969 105.125 357.046875 C 105.585938 357.425781 106.066406 357.78125 106.5625 358.113281 C 107.058594 358.445312 107.574219 358.753906 108.097656 359.035156 C 108.625 359.316406 109.164062 359.574219 109.71875 359.804688 C 110.269531 360.03125 110.832031 360.234375 111.402344 360.410156 C 111.976562 360.585938 112.554688 360.730469 113.140625 360.847656 C 113.726562 360.964844 114.316406 361.054688 114.914062 361.117188 C 115.507812 361.175781 116.105469 361.207031 116.703125 361.207031 L 297.648438 361.207031 C 298.015625 362.851562 298.257812 364.617188 298.5625 366.445312 C 298.722656 369.886719 299.421875 373.21875 300.660156 376.4375 C 301.902344 379.652344 303.617188 382.59375 305.8125 385.253906 C 307.46875 386.796875 309.304688 388.082031 311.324219 389.105469 C 313.34375 390.128906 315.464844 390.855469 317.6875 391.28125 L 317.6875 452.523438 C 317.6875 453.101562 317.765625 453.667969 317.925781 454.222656 C 318.089844 454.78125 318.324219 455.300781 318.632812 455.792969 C 318.945312 456.28125 319.316406 456.714844 319.75 457.097656 C 320.183594 457.480469 320.664062 457.796875 321.1875 458.042969 C 321.714844 458.289062 322.261719 458.457031 322.832031 458.546875 C 323.40625 458.636719 323.980469 458.644531 324.554688 458.570312 C 325.128906 458.496094 325.679688 458.34375 326.210938 458.113281 C 326.742188 457.878906 327.230469 457.578125 327.675781 457.210938 L 360.320312 429.996094 L 392.964844 457.210938 C 394.097656 458.144531 395.394531 458.613281 396.863281 458.609375 C 397.753906 458.609375 398.609375 458.425781 399.421875 458.0625 C 399.949219 457.816406 400.433594 457.503906 400.871094 457.121094 C 401.308594 456.738281 401.6875 456.300781 402 455.808594 C 402.3125 455.316406 402.550781 454.792969 402.710938 454.234375 C 402.875 453.675781 402.957031 453.105469 402.953125 452.523438 L 402.953125 391.28125 C 405.175781 390.855469 407.296875 390.128906 409.316406 389.105469 C 411.335938 388.082031 413.171875 386.796875 414.832031 385.253906 C 417.023438 382.59375 418.738281 379.652344 419.980469 376.4375 C 421.21875 373.21875 421.917969 369.886719 422.078125 366.445312 C 422.382812 364.617188 422.625 362.851562 422.992188 361.207031 L 445.585938 361.207031 C 446.183594 361.207031 446.78125 361.175781 447.375 361.117188 C 447.972656 361.054688 448.5625 360.964844 449.148438 360.847656 C 449.734375 360.730469 450.3125 360.585938 450.882812 360.410156 C 451.457031 360.234375 452.019531 360.03125 452.570312 359.804688 C 453.121094 359.574219 453.664062 359.316406 454.1875 359.035156 C 454.714844 358.753906 455.226562 358.445312 455.726562 358.113281 C 456.222656 357.78125 456.703125 357.425781 457.164062 357.046875 C 457.625 356.667969 458.066406 356.265625 458.492188 355.84375 C 458.914062 355.421875 459.316406 354.976562 459.695312 354.515625 C 460.074219 354.054688 460.429688 353.574219 460.761719 353.078125 C 461.09375 352.582031 461.402344 352.070312 461.683594 351.542969 C 461.96875 351.015625 462.222656 350.476562 462.453125 349.925781 C 462.683594 349.375 462.882812 348.8125 463.058594 348.242188 C 463.234375 347.667969 463.378906 347.089844 463.5 346.503906 C 463.617188 345.917969 463.707031 345.328125 463.765625 344.734375 C 463.824219 344.140625 463.855469 343.542969 463.859375 342.945312 L 463.859375 154.230469 C 463.855469 153.632812 463.824219 153.035156 463.765625 152.441406 C 463.707031 151.847656 463.617188 151.257812 463.5 150.671875 C 463.378906 150.085938 463.234375 149.507812 463.058594 148.933594 C 462.882812 148.363281 462.683594 147.800781 462.453125 147.25 C 462.222656 146.699219 461.96875 146.160156 461.683594 145.632812 C 461.402344 145.105469 461.09375 144.59375 460.761719 144.097656 C 460.429688 143.601562 460.074219 143.121094 459.695312 142.660156 C 459.316406 142.199219 458.914062 141.753906 458.492188 141.332031 C 458.066406 140.910156 457.625 140.507812 457.164062 140.128906 C 456.703125 139.75 456.222656 139.394531 455.726562 139.0625 C 455.226562 138.730469 454.714844 138.421875 454.1875 138.140625 C 453.664062 137.859375 453.121094 137.601562 452.570312 137.371094 C 452.019531 137.144531 451.457031 136.941406 450.882812 136.765625 C 450.3125 136.59375 449.734375 136.445312 449.148438 136.328125 C 448.5625 136.210938 447.972656 136.121094 447.375 136.0625 C 446.78125 136 446.183594 135.96875 445.585938 135.96875 Z M 153.246094 155.632812 L 153.246094 178.582031 C 153.246094 178.980469 153.207031 179.375 153.128906 179.769531 C 153.050781 180.160156 152.933594 180.542969 152.78125 180.910156 C 152.628906 181.28125 152.441406 181.628906 152.21875 181.964844 C 151.996094 182.296875 151.742188 182.601562 151.460938 182.886719 C 151.179688 183.167969 150.871094 183.421875 150.539062 183.644531 C 150.207031 183.863281 149.855469 184.050781 149.484375 184.207031 C 149.117188 184.359375 148.734375 184.472656 148.34375 184.550781 C 147.949219 184.628906 147.554688 184.667969 147.152344 184.667969 L 120.539062 184.667969 Z M 390.773438 439.496094 L 364.21875 417.394531 C 363.671875 416.941406 363.0625 416.59375 362.394531 416.351562 C 361.722656 416.109375 361.03125 415.988281 360.320312 415.988281 C 359.609375 415.988281 358.917969 416.109375 358.246094 416.351562 C 357.578125 416.59375 356.96875 416.941406 356.421875 417.394531 L 329.867188 439.496094 L 329.867188 393.410156 C 331.242188 393.671875 332.582031 394.058594 333.886719 394.566406 C 336.601562 395.917969 339.136719 397.542969 341.5 399.4375 C 344.082031 401.84375 346.984375 403.769531 350.210938 405.207031 C 353.433594 406.648438 356.804688 407.523438 360.320312 407.839844 C 363.835938 407.523438 367.207031 406.648438 370.429688 405.207031 C 373.65625 403.769531 376.558594 401.84375 379.140625 399.4375 C 381.503906 397.542969 384.039062 395.917969 386.753906 394.566406 C 388.058594 394.058594 389.398438 393.671875 390.773438 393.410156 Z M 419.277344 342.335938 C 416.734375 345.46875 414.605469 348.855469 412.882812 352.503906 C 411.449219 356.429688 410.496094 360.464844 410.019531 364.617188 C 409.957031 366.761719 409.605469 368.855469 408.964844 370.90625 C 408.320312 372.953125 407.414062 374.875 406.242188 376.671875 C 404.445312 377.84375 402.523438 378.75 400.472656 379.390625 C 398.425781 380.03125 396.328125 380.382812 394.183594 380.445312 C 390.050781 380.914062 386.027344 381.867188 382.125 383.304688 C 378.449219 385.015625 375.039062 387.144531 371.890625 389.699219 C 370.289062 391.222656 368.5 392.492188 366.535156 393.507812 C 364.566406 394.523438 362.496094 395.242188 360.320312 395.664062 C 358.148438 395.242188 356.074219 394.523438 354.109375 393.507812 C 352.140625 392.492188 350.351562 391.222656 348.75 389.699219 C 345.601562 387.144531 342.191406 385.015625 338.515625 383.304688 C 334.613281 381.867188 330.59375 380.914062 326.457031 380.445312 C 324.3125 380.382812 322.214844 380.03125 320.167969 379.390625 C 318.117188 378.75 316.195312 377.84375 314.398438 376.671875 C 313.226562 374.875 312.320312 372.953125 311.675781 370.90625 C 311.035156 368.855469 310.683594 366.761719 310.621094 364.617188 C 310.144531 360.464844 309.191406 356.429688 307.757812 352.503906 C 306.035156 348.855469 303.90625 345.46875 301.363281 342.335938 C 299.839844 340.734375 298.566406 338.949219 297.550781 336.980469 C 296.539062 335.011719 295.820312 332.941406 295.394531 330.769531 C 295.820312 328.597656 296.539062 326.527344 297.550781 324.558594 C 298.566406 322.59375 299.839844 320.808594 301.363281 319.203125 C 303.90625 316.070312 306.035156 312.683594 307.757812 309.039062 C 309.191406 305.113281 310.144531 301.074219 310.621094 296.921875 C 310.683594 294.777344 311.035156 292.683594 311.675781 290.636719 C 312.320312 288.589844 313.226562 286.667969 314.398438 284.871094 C 316.195312 283.699219 318.117188 282.792969 320.167969 282.152344 C 322.214844 281.507812 324.3125 281.15625 326.457031 281.097656 C 330.59375 280.625 334.613281 279.671875 338.515625 278.234375 C 342.191406 276.527344 345.601562 274.394531 348.75 271.84375 C 350.351562 270.316406 352.140625 269.046875 354.109375 268.03125 C 356.074219 267.019531 358.148438 266.300781 360.320312 265.875 C 362.496094 266.300781 364.566406 267.019531 366.535156 268.03125 C 368.5 269.046875 370.289062 270.316406 371.890625 271.84375 C 375.039062 274.394531 378.449219 276.527344 382.125 278.234375 C 386.027344 279.671875 390.050781 280.625 394.183594 281.097656 C 396.328125 281.15625 398.425781 281.507812 400.472656 282.152344 C 402.523438 282.792969 404.445312 283.699219 406.242188 284.871094 C 407.414062 286.667969 408.320312 288.589844 408.964844 290.636719 C 409.605469 292.683594 409.957031 294.777344 410.019531 296.921875 C 410.496094 301.074219 411.449219 305.113281 412.882812 309.039062 C 414.605469 312.683594 416.734375 316.070312 419.277344 319.203125 C 420.800781 320.808594 422.074219 322.59375 423.089844 324.558594 C 424.101562 326.527344 424.824219 328.597656 425.246094 330.769531 C 424.824219 332.941406 424.101562 335.011719 423.089844 336.980469 C 422.074219 338.949219 420.800781 340.734375 419.277344 342.335938 Z M 451.675781 342.945312 C 451.675781 343.34375 451.636719 343.742188 451.558594 344.132812 C 451.480469 344.523438 451.367188 344.90625 451.214844 345.273438 C 451.0625 345.644531 450.875 345.996094 450.652344 346.328125 C 450.429688 346.660156 450.175781 346.96875 449.894531 347.25 C 449.609375 347.53125 449.304688 347.785156 448.96875 348.007812 C 448.636719 348.230469 448.285156 348.417969 447.917969 348.570312 C 447.546875 348.722656 447.167969 348.839844 446.773438 348.917969 C 446.382812 348.992188 445.988281 349.03125 445.585938 349.03125 L 429.445312 349.03125 C 431.753906 346.515625 433.589844 343.691406 434.957031 340.566406 C 436.320312 337.4375 437.144531 334.171875 437.425781 330.769531 C 437.105469 327.246094 436.222656 323.871094 434.785156 320.640625 C 433.347656 317.40625 431.425781 314.496094 429.019531 311.898438 C 427.113281 309.566406 425.488281 307.050781 424.148438 304.351562 C 423.121094 301.339844 422.429688 298.257812 422.078125 295.097656 C 421.917969 291.652344 421.21875 288.320312 419.980469 285.105469 C 418.738281 281.886719 417.023438 278.949219 414.832031 276.285156 C 412.167969 274.09375 409.226562 272.378906 406.007812 271.140625 C 402.789062 269.898438 399.457031 269.199219 396.011719 269.042969 C 392.847656 268.691406 389.761719 268 386.753906 266.972656 C 384.039062 265.621094 381.503906 264 379.140625 262.101562 C 376.558594 259.695312 373.65625 257.773438 370.429688 256.332031 C 367.207031 254.894531 363.835938 254.015625 360.320312 253.703125 C 356.804688 254.015625 353.433594 254.894531 350.210938 256.332031 C 346.984375 257.773438 344.082031 259.695312 341.5 262.101562 C 339.136719 264 336.601562 265.621094 333.886719 266.972656 C 330.878906 268 327.792969 268.691406 324.628906 269.042969 C 321.183594 269.199219 317.851562 269.898438 314.632812 271.140625 C 311.414062 272.378906 308.472656 274.09375 305.8125 276.285156 C 303.617188 278.949219 301.902344 281.886719 300.660156 285.105469 C 299.421875 288.320312 298.722656 291.652344 298.5625 295.097656 C 298.210938 298.257812 297.519531 301.339844 296.492188 304.351562 C 295.152344 307.050781 293.527344 309.566406 291.621094 311.898438 C 289.214844 314.496094 287.292969 317.40625 285.855469 320.640625 C 284.417969 323.871094 283.535156 327.246094 283.214844 330.769531 C 283.496094 334.171875 284.320312 337.4375 285.683594 340.566406 C 287.050781 343.691406 288.886719 346.515625 291.195312 349.03125 L 116.703125 349.03125 C 116.300781 349.03125 115.90625 348.992188 115.511719 348.917969 C 115.121094 348.839844 114.742188 348.722656 114.371094 348.570312 C 114 348.417969 113.652344 348.230469 113.316406 348.007812 C 112.984375 347.785156 112.679688 347.53125 112.394531 347.25 C 112.113281 346.96875 111.859375 346.660156 111.636719 346.328125 C 111.414062 345.996094 111.226562 345.644531 111.074219 345.273438 C 110.921875 344.90625 110.804688 344.523438 110.726562 344.132812 C 110.648438 343.742188 110.609375 343.34375 110.609375 342.945312 L 110.609375 196.84375 L 147.152344 196.84375 C 147.75 196.84375 148.347656 196.8125 148.941406 196.75 C 149.539062 196.691406 150.128906 196.601562 150.714844 196.484375 C 151.300781 196.367188 151.878906 196.21875 152.453125 196.046875 C 153.023438 195.871094 153.585938 195.667969 154.136719 195.4375 C 154.691406 195.210938 155.230469 194.953125 155.757812 194.671875 C 156.285156 194.390625 156.796875 194.082031 157.292969 193.75 C 157.789062 193.417969 158.269531 193.0625 158.730469 192.683594 C 159.191406 192.300781 159.636719 191.902344 160.058594 191.480469 C 160.480469 191.054688 160.882812 190.613281 161.261719 190.152344 C 161.640625 189.691406 161.996094 189.210938 162.328125 188.714844 C 162.660156 188.21875 162.96875 187.707031 163.25 187.179688 C 163.535156 186.652344 163.789062 186.113281 164.019531 185.5625 C 164.25 185.007812 164.453125 184.449219 164.625 183.875 C 164.800781 183.304688 164.949219 182.726562 165.066406 182.140625 C 165.183594 181.554688 165.273438 180.964844 165.332031 180.371094 C 165.394531 179.773438 165.421875 179.179688 165.425781 178.582031 L 165.425781 148.144531 L 445.585938 148.144531 C 445.988281 148.144531 446.382812 148.183594 446.773438 148.261719 C 447.167969 148.339844 447.546875 148.453125 447.917969 148.605469 C 448.285156 148.757812 448.636719 148.945312 448.96875 149.167969 C 449.304688 149.390625 449.609375 149.644531 449.894531 149.925781 C 450.175781 150.207031 450.429688 150.515625 450.652344 150.847656 C 450.875 151.179688 451.0625 151.53125 451.214844 151.902344 C 451.367188 152.269531 451.480469 152.652344 451.558594 153.042969 C 451.636719 153.433594 451.675781 153.832031 451.675781 154.230469 Z M 360.320312 288.15625 C 358.925781 288.15625 357.53125 288.226562 356.140625 288.363281 C 354.753906 288.5 353.371094 288.703125 352.003906 288.976562 C 350.632812 289.25 349.28125 289.585938 347.945312 289.992188 C 346.609375 290.398438 345.296875 290.867188 344.003906 291.402344 C 342.714844 291.933594 341.453125 292.53125 340.222656 293.1875 C 338.992188 293.847656 337.796875 294.5625 336.632812 295.339844 C 335.472656 296.113281 334.351562 296.945312 333.273438 297.828125 C 332.195312 298.714844 331.160156 299.652344 330.175781 300.636719 C 329.1875 301.625 328.25 302.65625 327.363281 303.738281 C 326.480469 304.816406 325.648438 305.933594 324.871094 307.097656 C 324.097656 308.257812 323.378906 309.453125 322.722656 310.683594 C 322.0625 311.914062 321.464844 313.171875 320.933594 314.464844 C 320.398438 315.753906 319.929688 317.066406 319.523438 318.398438 C 319.117188 319.734375 318.777344 321.089844 318.507812 322.457031 C 318.234375 323.824219 318.027344 325.203125 317.890625 326.59375 C 317.753906 327.980469 317.6875 329.375 317.6875 330.769531 C 317.6875 332.164062 317.753906 333.558594 317.890625 334.945312 C 318.027344 336.335938 318.234375 337.714844 318.507812 339.082031 C 318.777344 340.453125 319.117188 341.804688 319.523438 343.140625 C 319.929688 344.476562 320.398438 345.789062 320.933594 347.078125 C 321.464844 348.367188 322.0625 349.628906 322.722656 350.859375 C 323.378906 352.089844 324.097656 353.285156 324.871094 354.445312 C 325.648438 355.605469 326.480469 356.726562 327.363281 357.804688 C 328.25 358.882812 329.1875 359.914062 330.175781 360.902344 C 331.160156 361.890625 332.195312 362.824219 333.273438 363.710938 C 334.351562 364.597656 335.472656 365.425781 336.632812 366.203125 C 337.796875 366.976562 338.992188 367.695312 340.222656 368.351562 C 341.453125 369.007812 342.714844 369.605469 344.003906 370.140625 C 345.296875 370.671875 346.609375 371.144531 347.945312 371.546875 C 349.28125 371.953125 350.632812 372.292969 352.003906 372.566406 C 353.371094 372.835938 354.753906 373.042969 356.140625 373.179688 C 357.53125 373.316406 358.925781 373.382812 360.320312 373.382812 C 361.714844 373.382812 363.109375 373.316406 364.5 373.179688 C 365.890625 373.042969 367.269531 372.835938 368.636719 372.566406 C 370.007812 372.292969 371.359375 371.953125 372.695312 371.546875 C 374.03125 371.144531 375.34375 370.671875 376.636719 370.140625 C 377.925781 369.605469 379.1875 369.007812 380.417969 368.351562 C 381.648438 367.695312 382.84375 366.976562 384.007812 366.203125 C 385.167969 365.425781 386.289062 364.597656 387.367188 363.710938 C 388.445312 362.824219 389.480469 361.890625 390.464844 360.902344 C 391.453125 359.914062 392.390625 358.882812 393.277344 357.804688 C 394.164062 356.726562 394.992188 355.605469 395.769531 354.445312 C 396.542969 353.285156 397.261719 352.089844 397.917969 350.859375 C 398.578125 349.628906 399.175781 348.367188 399.707031 347.078125 C 400.242188 345.789062 400.710938 344.476562 401.117188 343.140625 C 401.523438 341.804688 401.863281 340.453125 402.132812 339.082031 C 402.40625 337.714844 402.613281 336.335938 402.75 334.945312 C 402.886719 333.558594 402.953125 332.164062 402.953125 330.769531 C 402.953125 329.375 402.882812 327.984375 402.742188 326.59375 C 402.605469 325.207031 402.398438 323.828125 402.125 322.460938 C 401.851562 321.09375 401.511719 319.742188 401.105469 318.40625 C 400.699219 317.070312 400.230469 315.757812 399.695312 314.46875 C 399.160156 313.183594 398.5625 311.921875 397.90625 310.691406 C 397.246094 309.460938 396.53125 308.265625 395.753906 307.105469 C 394.976562 305.949219 394.148438 304.828125 393.261719 303.75 C 392.375 302.671875 391.4375 301.640625 390.453125 300.652344 C 389.464844 299.667969 388.433594 298.730469 387.351562 297.84375 C 386.273438 296.960938 385.15625 296.128906 383.996094 295.355469 C 382.835938 294.578125 381.636719 293.863281 380.40625 293.203125 C 379.175781 292.546875 377.917969 291.949219 376.628906 291.414062 C 375.339844 290.878906 374.027344 290.410156 372.691406 290.003906 C 371.355469 289.597656 370.003906 289.257812 368.632812 288.984375 C 367.265625 288.710938 365.886719 288.503906 364.496094 288.367188 C 363.109375 288.230469 361.714844 288.160156 360.320312 288.15625 Z M 360.320312 361.207031 C 359.324219 361.207031 358.328125 361.160156 357.335938 361.0625 C 356.34375 360.964844 355.359375 360.816406 354.378906 360.625 C 353.402344 360.429688 352.433594 360.1875 351.480469 359.898438 C 350.527344 359.609375 349.589844 359.273438 348.667969 358.890625 C 347.746094 358.507812 346.84375 358.085938 345.964844 357.613281 C 345.085938 357.144531 344.230469 356.632812 343.402344 356.078125 C 342.574219 355.523438 341.773438 354.929688 341 354.300781 C 340.230469 353.667969 339.492188 352.996094 338.789062 352.292969 C 338.082031 351.589844 337.414062 350.851562 336.78125 350.078125 C 336.148438 349.308594 335.554688 348.507812 335 347.679688 C 334.445312 346.851562 333.933594 345.996094 333.464844 345.117188 C 332.992188 344.238281 332.566406 343.339844 332.1875 342.417969 C 331.804688 341.496094 331.46875 340.558594 331.179688 339.605469 C 330.890625 338.652344 330.648438 337.6875 330.453125 336.707031 C 330.257812 335.730469 330.113281 334.746094 330.015625 333.753906 C 329.917969 332.761719 329.867188 331.765625 329.867188 330.769531 C 329.867188 329.773438 329.917969 328.777344 330.015625 327.785156 C 330.113281 326.792969 330.257812 325.808594 330.453125 324.832031 C 330.648438 323.855469 330.890625 322.886719 331.179688 321.933594 C 331.46875 320.980469 331.804688 320.042969 332.1875 319.121094 C 332.566406 318.203125 332.992188 317.300781 333.464844 316.421875 C 333.933594 315.542969 334.445312 314.6875 335 313.859375 C 335.554688 313.03125 336.148438 312.230469 336.78125 311.460938 C 337.414062 310.691406 338.082031 309.953125 338.789062 309.246094 C 339.492188 308.542969 340.230469 307.875 341 307.242188 C 341.773438 306.609375 342.574219 306.015625 343.402344 305.460938 C 344.230469 304.910156 345.085938 304.394531 345.964844 303.925781 C 346.84375 303.457031 347.746094 303.03125 348.667969 302.648438 C 349.589844 302.269531 350.527344 301.933594 351.480469 301.644531 C 352.433594 301.355469 353.402344 301.113281 354.378906 300.917969 C 355.359375 300.722656 356.34375 300.578125 357.335938 300.480469 C 358.328125 300.382812 359.324219 300.332031 360.320312 300.332031 C 361.316406 300.332031 362.3125 300.382812 363.304688 300.480469 C 364.296875 300.578125 365.28125 300.722656 366.261719 300.917969 C 367.238281 301.113281 368.207031 301.355469 369.160156 301.644531 C 370.113281 301.933594 371.050781 302.269531 371.972656 302.648438 C 372.894531 303.03125 373.796875 303.457031 374.675781 303.925781 C 375.554688 304.394531 376.410156 304.910156 377.238281 305.460938 C 378.066406 306.015625 378.867188 306.609375 379.640625 307.242188 C 380.410156 307.875 381.148438 308.542969 381.851562 309.246094 C 382.558594 309.953125 383.226562 310.691406 383.859375 311.460938 C 384.492188 312.230469 385.085938 313.03125 385.640625 313.859375 C 386.195312 314.6875 386.707031 315.542969 387.175781 316.421875 C 387.648438 317.300781 388.074219 318.203125 388.453125 319.121094 C 388.835938 320.042969 389.171875 320.980469 389.460938 321.933594 C 389.75 322.886719 389.992188 323.855469 390.1875 324.832031 C 390.382812 325.808594 390.527344 326.792969 390.625 327.785156 C 390.722656 328.777344 390.773438 329.773438 390.773438 330.769531 C 390.773438 331.765625 390.722656 332.761719 390.621094 333.753906 C 390.523438 334.746094 390.375 335.730469 390.179688 336.707031 C 389.984375 337.683594 389.742188 338.648438 389.453125 339.601562 C 389.164062 340.554688 388.828125 341.492188 388.445312 342.414062 C 388.0625 343.332031 387.636719 344.234375 387.167969 345.113281 C 386.695312 345.988281 386.183594 346.84375 385.628906 347.671875 C 385.074219 348.5 384.480469 349.300781 383.847656 350.070312 C 383.214844 350.839844 382.546875 351.578125 381.84375 352.28125 C 381.136719 352.988281 380.398438 353.65625 379.628906 354.289062 C 378.859375 354.921875 378.058594 355.511719 377.230469 356.066406 C 376.402344 356.621094 375.546875 357.132812 374.667969 357.601562 C 373.789062 358.074219 372.890625 358.5 371.96875 358.882812 C 371.046875 359.261719 370.109375 359.597656 369.15625 359.890625 C 368.203125 360.179688 367.238281 360.421875 366.257812 360.617188 C 365.28125 360.8125 364.296875 360.960938 363.304688 361.058594 C 362.3125 361.15625 361.316406 361.207031 360.320312 361.207031 Z M 374.285156 314.292969 L 382.898438 322.898438 L 358.535156 347.25 C 358.253906 347.53125 357.945312 347.785156 357.613281 348.007812 C 357.28125 348.226562 356.929688 348.414062 356.558594 348.570312 C 356.191406 348.722656 355.808594 348.835938 355.417969 348.914062 C 355.027344 348.992188 354.628906 349.03125 354.230469 349.03125 C 353.832031 349.03125 353.433594 348.992188 353.042969 348.914062 C 352.648438 348.835938 352.269531 348.722656 351.898438 348.570312 C 351.53125 348.414062 351.179688 348.226562 350.847656 348.007812 C 350.515625 347.785156 350.207031 347.53125 349.925781 347.25 L 337.742188 335.074219 L 346.355469 326.464844 L 354.230469 334.335938 Z M 323.777344 184.667969 L 238.511719 184.667969 L 238.511719 172.492188 L 323.777344 172.492188 Z M 134.972656 209.019531 L 427.316406 209.019531 L 427.316406 221.195312 L 134.972656 221.195312 Z M 134.972656 245.542969 L 281.144531 245.542969 L 281.144531 257.71875 L 134.972656 257.71875 Z M 134.972656 282.070312 L 281.144531 282.070312 L 281.144531 294.246094 L 134.972656 294.246094 Z M 134.972656 318.59375 L 232.421875 318.59375 L 232.421875 330.769531 L 134.972656 330.769531 Z M 134.972656 318.59375 " fill-opacity="1" fill-rule="nonzero"/></g></svg>