<svg xmlns="http://www.w3.org/2000/svg" xmlns:xlink="http://www.w3.org/1999/xlink" width="750" zoomAndPan="magnify" viewBox="0 0 562.5 595.499986" height="794" preserveAspectRatio="xMidYMid meet" version="1.0"><defs><clipPath id="id1"><path d="M 129 139 L 434.894531 139 L 434.894531 459.21875 L 129 459.21875 Z M 129 139 " clip-rule="nonzero"/></clipPath></defs><g clip-path="url(#id1)"><path fill="#6bd1ff" d="M 338.117188 459.21875 C 337.59375 459.21875 337.070312 459.191406 336.546875 459.140625 C 336.023438 459.089844 335.503906 459.011719 334.988281 458.910156 C 334.472656 458.808594 333.964844 458.679688 333.460938 458.527344 C 332.957031 458.375 332.464844 458.199219 331.976562 457.996094 C 331.492188 457.796875 331.015625 457.570312 330.554688 457.324219 C 330.089844 457.074219 329.640625 456.804688 329.203125 456.515625 C 328.765625 456.222656 328.34375 455.910156 327.9375 455.578125 C 327.53125 455.242188 327.140625 454.890625 326.769531 454.519531 C 326.398438 454.148438 326.046875 453.757812 325.714844 453.351562 C 325.378906 452.945312 325.066406 452.523438 324.773438 452.089844 C 324.484375 451.652344 324.214844 451.203125 323.964844 450.738281 C 323.71875 450.273438 323.492188 449.800781 323.292969 449.316406 C 323.089844 448.828125 322.914062 448.335938 322.761719 447.832031 C 322.609375 447.328125 322.480469 446.820312 322.378906 446.304688 C 322.277344 445.789062 322.199219 445.269531 322.148438 444.75 C 322.097656 444.226562 322.070312 443.703125 322.070312 443.175781 L 322.070312 387.027344 C 322.070312 384.796875 322.070312 382.738281 322.125 380.835938 C 322.285156 369.824219 322.222656 369.765625 318.75 366.285156 C 317.679688 365.214844 316.78125 364.019531 316.054688 362.695312 C 315.324219 361.371094 314.792969 359.972656 314.460938 358.496094 C 314.128906 357.023438 314.007812 355.53125 314.09375 354.023438 C 314.183594 352.515625 314.480469 351.046875 314.980469 349.621094 C 315.484375 348.199219 316.175781 346.871094 317.054688 345.640625 C 317.933594 344.410156 318.964844 343.324219 320.148438 342.386719 C 321.335938 341.449219 322.625 340.691406 324.023438 340.121094 C 325.421875 339.546875 326.875 339.175781 328.378906 339.015625 C 366.78125 334.890625 402.3125 322.3125 402.3125 258.691406 C 402.316406 254.976562 401.960938 251.292969 401.25 247.644531 C 400.539062 244 399.480469 240.453125 398.082031 237.011719 C 396.683594 233.570312 394.964844 230.292969 392.929688 227.183594 C 390.894531 224.074219 388.578125 221.191406 385.984375 218.527344 C 384.921875 217.4375 384.035156 216.21875 383.320312 214.871094 C 382.605469 213.527344 382.089844 212.109375 381.78125 210.617188 C 381.46875 209.125 381.375 207.621094 381.492188 206.101562 C 381.609375 204.582031 381.9375 203.109375 382.476562 201.683594 C 384.230469 197.066406 385.289062 192.292969 385.652344 187.367188 C 386.015625 182.4375 385.667969 177.5625 384.613281 172.738281 C 371.601562 176.46875 359.609375 182.292969 348.628906 190.207031 C 347.6875 190.832031 346.691406 191.351562 345.636719 191.765625 C 344.585938 192.179688 343.5 192.480469 342.386719 192.667969 C 341.269531 192.855469 340.148438 192.925781 339.019531 192.875 C 337.886719 192.828125 336.773438 192.664062 335.679688 192.378906 C 328.214844 190.441406 320.660156 188.984375 313.011719 188.007812 C 305.363281 187.03125 297.683594 186.546875 289.972656 186.546875 C 282.261719 186.546875 274.582031 187.03125 266.933594 188.007812 C 259.285156 188.984375 251.730469 190.441406 244.265625 192.378906 C 243.171875 192.664062 242.058594 192.832031 240.929688 192.882812 C 239.796875 192.933594 238.675781 192.867188 237.558594 192.679688 C 236.441406 192.492188 235.359375 192.1875 234.304688 191.773438 C 233.253906 191.355469 232.257812 190.835938 231.316406 190.207031 C 220.335938 182.292969 208.34375 176.46875 195.332031 172.738281 C 194.277344 177.5625 193.929688 182.4375 194.292969 187.367188 C 194.65625 192.292969 195.714844 197.066406 197.46875 201.683594 C 198.007812 203.109375 198.335938 204.582031 198.453125 206.101562 C 198.570312 207.621094 198.476562 209.125 198.164062 210.617188 C 197.855469 212.109375 197.34375 213.527344 196.628906 214.871094 C 195.914062 216.21875 195.023438 217.4375 193.960938 218.527344 C 191.367188 221.191406 189.050781 224.074219 187.015625 227.183594 C 184.980469 230.292969 183.265625 233.570312 181.863281 237.011719 C 180.464844 240.453125 179.410156 244 178.695312 247.644531 C 177.984375 251.292969 177.628906 254.976562 177.632812 258.691406 C 177.632812 322.296875 213.164062 334.890625 251.558594 338.980469 C 253.0625 339.144531 254.515625 339.515625 255.914062 340.085938 C 257.3125 340.660156 258.601562 341.417969 259.789062 342.355469 C 260.972656 343.292969 262.003906 344.378906 262.882812 345.609375 C 263.761719 346.839844 264.453125 348.164062 264.957031 349.589844 C 265.457031 351.015625 265.753906 352.480469 265.84375 353.992188 C 265.929688 355.5 265.808594 356.992188 265.476562 358.464844 C 265.144531 359.9375 264.613281 361.335938 263.882812 362.660156 C 263.15625 363.984375 262.257812 365.183594 261.191406 366.253906 C 257.136719 370.265625 256.253906 373.105469 257.738281 385.007812 C 257.832031 385.675781 257.875 386.351562 257.875 387.027344 L 257.875 443.175781 C 257.875 443.703125 257.851562 444.226562 257.796875 444.75 C 257.746094 445.269531 257.667969 445.789062 257.566406 446.304688 C 257.464844 446.820312 257.335938 447.328125 257.183594 447.832031 C 257.03125 448.335938 256.855469 448.828125 256.652344 449.316406 C 256.453125 449.800781 256.226562 450.273438 255.980469 450.738281 C 255.734375 451.203125 255.464844 451.652344 255.171875 452.089844 C 254.878906 452.523438 254.566406 452.945312 254.234375 453.351562 C 253.898438 453.757812 253.546875 454.148438 253.175781 454.519531 C 252.804688 454.890625 252.414062 455.242188 252.007812 455.578125 C 251.601562 455.910156 251.179688 456.222656 250.742188 456.515625 C 250.304688 456.804688 249.855469 457.074219 249.390625 457.324219 C 248.929688 457.570312 248.453125 457.796875 247.96875 457.996094 C 247.484375 458.199219 246.988281 458.375 246.484375 458.527344 C 245.984375 458.679688 245.472656 458.808594 244.957031 458.910156 C 244.441406 459.011719 243.921875 459.089844 243.398438 459.140625 C 242.875 459.191406 242.351562 459.21875 241.828125 459.21875 C 241.300781 459.21875 240.777344 459.191406 240.253906 459.140625 C 239.730469 459.089844 239.210938 459.011719 238.695312 458.910156 C 238.179688 458.808594 237.671875 458.679688 237.167969 458.527344 C 236.664062 458.375 236.171875 458.199219 235.683594 457.996094 C 235.199219 457.796875 234.726562 457.570312 234.261719 457.324219 C 233.796875 457.074219 233.347656 456.804688 232.910156 456.515625 C 232.472656 456.222656 232.050781 455.910156 231.644531 455.578125 C 231.238281 455.242188 230.851562 454.890625 230.480469 454.519531 C 230.105469 454.148438 229.753906 453.757812 229.421875 453.351562 C 229.085938 452.945312 228.773438 452.523438 228.484375 452.089844 C 228.191406 451.652344 227.921875 451.203125 227.671875 450.738281 C 227.425781 450.273438 227.199219 449.800781 227 449.316406 C 226.796875 448.828125 226.621094 448.335938 226.46875 447.832031 C 226.316406 447.328125 226.1875 446.820312 226.085938 446.304688 C 225.984375 445.789062 225.90625 445.269531 225.855469 444.75 C 225.804688 444.226562 225.777344 443.703125 225.777344 443.175781 L 225.777344 431.222656 C 183.890625 436.582031 165.722656 410.097656 154.257812 393.371094 C 149.546875 386.53125 144.734375 379.449219 141.007812 378.355469 C 140.503906 378.210938 140.007812 378.035156 139.523438 377.839844 C 139.035156 377.640625 138.558594 377.421875 138.09375 377.179688 C 137.628906 376.933594 137.175781 376.667969 136.734375 376.378906 C 136.296875 376.09375 135.871094 375.785156 135.464844 375.453125 C 135.054688 375.125 134.664062 374.773438 134.289062 374.40625 C 133.914062 374.039062 133.558594 373.652344 133.21875 373.25 C 132.882812 372.84375 132.566406 372.425781 132.269531 371.992188 C 131.976562 371.558594 131.703125 371.109375 131.449219 370.648438 C 131.199219 370.1875 130.96875 369.714844 130.765625 369.230469 C 130.558594 368.75 130.378906 368.257812 130.222656 367.753906 C 130.066406 367.253906 129.933594 366.746094 129.824219 366.230469 C 129.71875 365.714844 129.636719 365.199219 129.582031 364.675781 C 129.527344 364.152344 129.496094 363.628906 129.492188 363.105469 C 129.488281 362.578125 129.507812 362.054688 129.554688 361.53125 C 129.601562 361.007812 129.675781 360.488281 129.773438 359.972656 C 129.871094 359.457031 129.992188 358.945312 130.140625 358.441406 C 130.289062 357.9375 130.460938 357.441406 130.660156 356.957031 C 130.855469 356.46875 131.078125 355.992188 131.320312 355.527344 C 131.5625 355.0625 131.828125 354.609375 132.117188 354.171875 C 132.40625 353.730469 132.714844 353.304688 133.042969 352.898438 C 133.375 352.488281 133.722656 352.097656 134.09375 351.722656 C 134.460938 351.347656 134.847656 350.992188 135.25 350.65625 C 135.652344 350.316406 136.070312 350 136.507812 349.707031 C 136.941406 349.410156 137.386719 349.136719 137.847656 348.886719 C 138.3125 348.632812 138.785156 348.40625 139.265625 348.199219 C 139.75 347.992188 140.242188 347.8125 140.746094 347.65625 C 141.246094 347.5 141.753906 347.367188 142.269531 347.257812 C 142.785156 347.152344 143.300781 347.070312 143.824219 347.015625 C 144.347656 346.957031 144.871094 346.929688 145.398438 346.921875 C 145.921875 346.917969 146.445312 346.941406 146.96875 346.988281 C 147.492188 347.035156 148.011719 347.105469 148.53125 347.203125 C 149.046875 347.300781 149.554688 347.425781 150.0625 347.574219 C 164.738281 351.886719 173.242188 364.296875 180.738281 375.238281 C 191.898438 391.527344 200.324219 403.816406 225.777344 398.789062 L 225.777344 388.007812 C 224.765625 381.164062 224.765625 374.324219 225.777344 367.480469 C 193.023438 360.277344 145.535156 338.097656 145.535156 258.691406 C 145.527344 253.730469 145.929688 248.804688 146.746094 243.914062 C 147.558594 239.019531 148.773438 234.230469 150.382812 229.539062 C 151.996094 224.851562 153.988281 220.324219 156.355469 215.96875 C 158.722656 211.609375 161.433594 207.476562 164.488281 203.570312 C 163.371094 199.082031 162.636719 194.53125 162.285156 189.921875 C 161.929688 185.308594 161.960938 180.703125 162.378906 176.097656 C 162.800781 171.488281 163.597656 166.953125 164.777344 162.480469 C 165.957031 158.007812 167.5 153.664062 169.40625 149.453125 C 169.894531 148.371094 170.492188 147.355469 171.203125 146.40625 C 171.914062 145.457031 172.722656 144.597656 173.625 143.828125 C 174.527344 143.058594 175.5 142.398438 176.550781 141.84375 C 177.597656 141.289062 178.695312 140.859375 179.839844 140.546875 C 185.359375 139.039062 205.628906 136.25 243.152344 159.664062 C 250.839844 157.941406 258.597656 156.648438 266.425781 155.78125 C 274.257812 154.914062 282.109375 154.480469 289.988281 154.480469 C 297.867188 154.480469 305.722656 154.914062 313.550781 155.78125 C 321.382812 156.648438 329.140625 157.941406 336.828125 159.664062 C 374.363281 136.242188 394.601562 139.023438 400.140625 140.546875 C 401.285156 140.859375 402.378906 141.289062 403.429688 141.84375 C 404.476562 142.398438 405.453125 143.058594 406.355469 143.828125 C 407.257812 144.597656 408.0625 145.457031 408.773438 146.40625 C 409.484375 147.355469 410.085938 148.371094 410.570312 149.453125 C 412.476562 153.664062 414.019531 158.007812 415.199219 162.480469 C 416.378906 166.953125 417.179688 171.488281 417.597656 176.097656 C 418.015625 180.703125 418.046875 185.308594 417.695312 189.921875 C 417.339844 194.53125 416.605469 199.082031 415.488281 203.570312 C 418.542969 207.476562 421.253906 211.609375 423.617188 215.96875 C 425.980469 220.328125 427.96875 224.851562 429.578125 229.542969 C 431.1875 234.234375 432.398438 239.023438 433.210938 243.914062 C 434.019531 248.808594 434.421875 253.730469 434.410156 258.691406 C 434.410156 338.421875 386.511719 360.476562 353.765625 367.585938 C 354.246094 372.152344 354.398438 376.730469 354.222656 381.316406 C 354.222656 383.082031 354.167969 384.976562 354.167969 387.042969 L 354.167969 443.191406 C 354.167969 443.71875 354.140625 444.242188 354.089844 444.761719 C 354.035156 445.285156 353.960938 445.804688 353.855469 446.320312 C 353.753906 446.835938 353.625 447.34375 353.472656 447.84375 C 353.320312 448.347656 353.144531 448.839844 352.941406 449.324219 C 352.738281 449.8125 352.515625 450.285156 352.265625 450.746094 C 352.019531 451.210938 351.75 451.660156 351.457031 452.097656 C 351.164062 452.53125 350.851562 452.953125 350.519531 453.359375 C 350.183594 453.765625 349.832031 454.152344 349.460938 454.523438 C 349.089844 454.894531 348.699219 455.25 348.292969 455.582031 C 347.886719 455.914062 347.46875 456.226562 347.03125 456.519531 C 346.59375 456.808594 346.144531 457.078125 345.679688 457.328125 C 345.214844 457.574219 344.742188 457.796875 344.257812 458 C 343.769531 458.199219 343.277344 458.375 342.773438 458.527344 C 342.273438 458.679688 341.761719 458.808594 341.246094 458.910156 C 340.734375 459.011719 340.214844 459.089844 339.691406 459.140625 C 339.167969 459.191406 338.644531 459.21875 338.117188 459.21875 Z M 338.117188 459.21875 " fill-opacity="1" fill-rule="nonzero"/></g></svg>