<svg xmlns="http://www.w3.org/2000/svg" xmlns:xlink="http://www.w3.org/1999/xlink" width="750" zoomAndPan="magnify" viewBox="0 0 562.5 595.499986" height="794" preserveAspectRatio="xMidYMid meet" version="1.0"><defs><clipPath id="id1"><path d="M 122.726562 139.242188 L 439.976562 139.242188 L 439.976562 456.492188 L 122.726562 456.492188 Z M 122.726562 139.242188 " clip-rule="nonzero"/></clipPath></defs><g clip-path="url(#id1)"><path fill="#6bd1ff" d="M 281.273438 139.242188 C 193.632812 139.242188 122.726562 210.226562 122.726562 297.867188 C 122.726562 385.507812 193.632812 456.492188 281.273438 456.492188 C 368.914062 456.492188 439.976562 385.507812 439.976562 297.867188 C 439.976562 210.226562 368.914062 139.242188 281.273438 139.242188 Z M 281.351562 424.765625 C 211.238281 424.765625 154.453125 367.980469 154.453125 297.867188 C 154.453125 227.753906 211.238281 170.964844 281.351562 170.964844 C 351.464844 170.964844 408.25 227.753906 408.25 297.867188 C 408.25 367.980469 351.464844 424.765625 281.351562 424.765625 Z M 281.351562 424.765625 " fill-opacity="1" fill-rule="nonzero"/></g><path fill="#6bd1ff" d="M 289.28125 218.554688 L 265.488281 218.554688 L 265.488281 313.730469 L 348.6875 363.695312 L 360.664062 344.183594 L 289.28125 301.832031 Z M 289.28125 218.554688 " fill-opacity="1" fill-rule="nonzero"/></svg>